<svg xmlns="http://www.w3.org/2000/svg" viewBox="0 0 947.97 259.31"><g id="Layer_2" data-name="Layer 2"><g id="Layer_1-2" data-name="Layer 1"><path d="M596.59,192.05c6.39-15.59,12.43-30.3,18.47-45q15.5-37.75,30.93-75.54c1.14-2.83,2.54-4,5.76-3.94q40,.23,80,0c3.36,0,4.51.69,4.51,4.31q-.18,90.69,0,181.39c0,3.55-1,4.42-4.45,4.37-14.16-.19-28.32-.24-42.48,0-4.12.08-5.25-1-5.24-5.16.16-47.14.1-94.28.1-141.41v-5.17l-.92-.14q-9.11,23-18.21,46.05-20,50.68-39.91,101.42c-1.31,3.35-2.92,4.45-6.48,4.39-14.66-.21-29.33-.24-44,0-3.83.07-5.4-1.25-6.75-4.7Q539.58,180.68,511,108.49a5.94,5.94,0,0,0-2.12-2.93v5.11c0,47.13-.05,94.27.1,141.41,0,4.17-.67,5.72-5.33,5.6-14.15-.35-28.32-.21-42.48-.06-3.14,0-4.21-.63-4.2-4.06q.18-90.94,0-181.88c0-3.33.91-4.14,4.14-4.12q40.23.18,80.47,0c3.32,0,4.48,1.32,5.63,4.13Q570.95,130,595,188.18C595.33,189.09,595.72,190,596.59,192.05Z"/><path d="M53,254.48q20.5-49.9,41-99.82Q111.1,113,128.09,71.28c1.1-2.71,2.39-3.73,5.39-3.72q47,.16,94,0c3.32,0,4.57.61,4.56,4.3q-.18,90.69,0,181.37c0,3.54-1,4.45-4.45,4.4-14.32-.18-28.65-.24-43,0-3.9.07-4.57-1.12-4.57-4.74q.18-88.68.09-177.36V70.25l-.75-.16Q170,93.78,160.61,117.48q-26.85,68-53.62,136.12c-1.11,2.82-2.41,4.06-5.7,4q-48.48-.21-96.95,0c-3.61,0-4.31-1.08-4.3-4.47Q.19,162.75,0,72.31c0-4.18,1.37-4.81,5-4.76,14,.19,28,.25,42,0,4.13-.08,5.19.93,5.18,5.13Q52,160.83,52.1,249v5.37Z"/><path d="M344.16,68c30.49,0,61,.12,91.46-.13,4.59,0,5.45,1.29,5.35,5.53-.3,12.15-.25,24.32,0,36.47.07,3.56-1,4.38-4.42,4.36-20.82-.17-41.65,0-62.47-.18-3.75,0-4.62.88-4.61,4.62.15,44.46,0,88.93.22,133.4,0,4.78-1.46,5.7-5.83,5.61q-20.49-.4-41,0c-3.92.07-4.92-1-4.9-4.9.15-44.64,0-89.27.19-133.91,0-4-1-4.86-4.88-4.82-20.32.2-40.65,0-61,.19-3.55,0-4.39-.9-4.32-4.38.22-12.48.29-25,0-37.47-.11-4,1.26-4.48,4.75-4.47C283.18,68,313.67,68,344.16,68Z"/><path d="M205.71,0c14.67,0,26.1,10.89,26.19,25s-11.23,25.44-25.73,25.61-26.06-11-26.09-25.15C180,11.07,191.13,0,205.71,0Z"/><path d="M929,102.62C908.47,77,880.84,66.1,841,65.76,803.34,64.7,754.14,94,749.45,151.17c-1.78,21.65.45,42.75,11.91,61.62,18.52,30.47,46.88,44.47,81.81,46.36,51.66,2.79,100.07-29.63,104.32-85.47C949.46,147.88,945.67,123.39,929,102.62ZM849.57,213.07c-30.53.08-50.29-19.58-50.44-50.17S818.69,112,848.35,112c29.46-.08,49.38,20.17,49.43,50.23C897.82,192.41,878.32,213,849.57,213.07Z"/></g></g></svg>