<svg xmlns="http://www.w3.org/2000/svg" viewBox="0 0 1002.04 291.9"><defs><style>.cls-1{fill:#010101;}.cls-2{fill:#040404;}.cls-3{fill:#fdfdfd;}.cls-4{fill:#f1f1f1;}</style></defs><g id="Layer_2" data-name="Layer 2"><g id="Layer_1-2" data-name="Layer 1"><path d="M254.53,118.85l21.23-53.21c3.51-8.79,7.07-17.57,10.44-26.41.87-2.31,1.9-3.35,4.58-3.31,13.16.15,26.33.2,39.48,0,3.33-.06,3.7,1.13,3.69,4q-.13,52.47,0,104.94c0,3-.42,4.42-3.94,4.22a168.68,168.68,0,0,0-18,0c-3.45.17-4-1.12-4-4.23.1-30.15.06-60.3.06-90.45v-4.9l-.86-.24c-2.77,7.13-5.56,14.25-8.3,21.39-9.44,24.63-18.92,49.25-28.21,73.94-1.22,3.25-2.62,4.71-6.32,4.5-6.65-.36-13.33-.26-20,0-3.1.11-4.53-.73-5.7-3.82-11.74-31-23.71-62-35.62-93a9.72,9.72,0,0,0-2.08-3.6c-.08,1.66-.22,3.32-.22,5,0,30.15-.07,60.3.07,90.45,0,3.75-.68,5.27-4.8,5a155.3,155.3,0,0,0-17,0c-3.06.12-4.22-.47-4.21-3.95q.22-52.47,0-104.94c0-3,.46-4.28,3.95-4.22,13,.24,26,.22,39,0,3.07,0,4.19,1.12,5.24,3.77C233.32,65.76,243.74,91.79,254.53,118.85Z"/><path d="M152.76,180.53v5.19c0,33-.08,65.95.1,98.92,0,4.15-1.05,5.45-5.21,5.17a150.29,150.29,0,0,0-17,0c-3.22.17-3.81-1-3.8-3.93q.13-53,0-105.91c0-2.88.84-3.62,3.63-3.59,14.33.13,28.65.26,43-.07,4.24-.09,4.38,2.83,5.33,5.2q20,49.86,39.81,99.79c.58,1.45,1.26,2.87,2,4.65,1.2-2.24.72-4.08.72-5.83,0-32.8.14-65.61-.1-98.41,0-4.61,1.32-5.65,5.58-5.36,5.47.36,11,.19,16.48,0,2.61-.07,3.81.4,3.8,3.47q-.16,53.21,0,106.41c0,3-1,3.54-3.75,3.52-14.48-.12-29-.2-43.46,0-3.48.06-4.84-1.14-6-4.24Q174.58,234.64,155,183.81c-.44-1.16-.9-2.32-1.36-3.48Z"/><path d="M432.71,232.73c0-17.31.09-34.62-.08-51.94,0-3.44.82-4.48,4.37-4.44q37,.39,73.91.34c3.11,0,4,.87,3.85,3.93a143.94,143.94,0,0,0,0,15c.17,3.16-.94,3.91-3.95,3.89-15.65-.13-31.3.08-46.95-.16-4.18-.06-6.07.67-5.59,5.34a78.69,78.69,0,0,1,0,13.47c-.26,3.67,1.19,4.39,4.55,4.34,12-.18,24,.19,36-.2,4.66-.16,5.67,1.39,5.29,5.58a82.45,82.45,0,0,0,0,12c.16,2.86-.82,3.67-3.65,3.64-12.48-.14-25,.09-37.46-.15-3.77-.07-5,1-4.68,4.72a90.53,90.53,0,0,1,0,13.48c-.31,4,.77,5.4,5.09,5.32,15.65-.28,31.31,0,47-.19,3.44,0,4.66.81,4.42,4.38a107.5,107.5,0,0,0,0,14.47c.25,3.71-1.24,4.31-4.55,4.29q-36.72-.19-73.43,0c-3.25,0-4.2-.81-4.17-4.13C432.8,268,432.71,250.38,432.71,232.73Z"/><path d="M110.1,211.34c-.66,9.65,1.23,21.52-1,33.24-5.09,26.24-29.18,45.91-54.75,44.8-27.76-1.2-49.89-21.07-53.5-48C-.63,230.72.33,220.05.15,209.41c-.16-9.33.2-18.66-.14-28-.16-4.29,1.25-5.37,5.31-5.09a111.08,111.08,0,0,0,15.48,0c4-.28,5.33.71,5.27,5-.29,18.15-.2,36.3-.1,54.45a30,30,0,0,0,19.24,27.81,28.83,28.83,0,0,0,31.44-7.89,30,30,0,0,0,7.8-21c-.06-18,.07-36-.1-54,0-3.44.81-4.67,4.4-4.48,5.82.3,11.66.24,17.48,0,3-.12,4,.73,3.94,3.87C110,189.88,110.1,199.54,110.1,211.34Z"/><path d="M361.54,258.5c10.41-26.07,20.81-51.92,31-77.85,1.31-3.32,3-4.47,6.47-4.31,6.31.3,12.64.09,19,.09.83,1.68-.24,2.91-.74,4.2-13.4,35-26.88,70-40.16,105-1.2,3.18-2.61,4.32-6,4.17-7-.3-14-.18-21,0-2.35.05-3.49-.67-4.35-2.94q-20.44-53.7-41.12-107.3c-1-2.52-.63-3.2,2.05-3.14,5.66.12,11.34.27,17,0,3.39-.19,5,1,6.17,4.11,9.73,24.86,19.63,49.67,29.52,74.47C359.82,256.11,359.93,257.58,361.54,258.5Z"/><path d="M678.36,291.9c-15.16-.56-29.56-4.95-39.31-19-5-7.16-4.73-7.48,3.55-9.26,2.11-.46,4.21-.94,6.3-1.48,5.4-1.37,9.64-2,14.66,3.17,7.15,7.37,17.11,7.27,26.57,3.43,4-1.65,6.92-4.66,7.15-9.38s-2.64-7.35-6.25-9.42c-4.78-2.75-10-4.41-15.27-6a116.09,116.09,0,0,1-20.82-8.2c-11.8-6.21-17.24-16.27-16.88-29.36.36-12.93,6.59-22.45,18.18-28.2,16.41-8.15,38.91-4.16,51.71,9,.46.48.95.94,1.38,1.44,6.61,7.64,6.13,9.24-3.4,11.21-1.62.34-3.26.64-4.87,1-5.25,1.29-9.62,2-14.52-2.74-5.17-5-12.65-4.53-19.22-1.2-8,4.08-8.44,12.47-1,17.44,5,3.36,10.92,4.73,16.62,6.49a134.61,134.61,0,0,1,19.09,7.07c12.1,5.84,18.82,15.06,18.54,28.71-.3,14.52-7.14,25-20.36,31.07C693.63,290.77,686.57,291.74,678.36,291.9Z"/><path d="M830.94,176.76c17,0,34,.15,50.95-.1,4.09-.06,5.07,1.21,4.81,5a110.37,110.37,0,0,0,0,14c.2,3.23-1.05,3.88-4,3.85-11.32-.15-22.65.14-34-.17-4.29-.11-5.61.84-5.56,5.4.24,26.47,0,52.94.25,79.41,0,4.62-1.34,5.65-5.59,5.35a114.09,114.09,0,0,0-15.47,0c-3.71.23-4.7-.8-4.68-4.62.2-26.81,0-53.61.21-80.41,0-4.15-.93-5.26-5.12-5.13-11,.33-22-.08-33,.21-3.91.1-4.84-1.17-4.6-4.8a105.19,105.19,0,0,0,0-14c-.23-3.46,1.13-4.08,4.25-4.05C796.63,176.84,813.79,176.76,830.94,176.76Z"/><path d="M97.68,36.15c17,0,34,.09,51-.08,3.36,0,4.76.62,4.51,4.3a124.78,124.78,0,0,0,0,15c.17,3.09-.73,3.93-3.84,3.87-11.66-.19-23.33.09-35-.17-3.78-.09-4.69.93-4.66,4.67.17,26.82,0,53.64.19,80.45,0,4-1.06,5.1-4.94,4.86a143.82,143.82,0,0,0-16.48,0c-3.46.18-4.46-.77-4.44-4.34.17-25.65.09-51.3.09-76.95,0-8.59,0-8.59-8.55-8.59-10,0-20-.13-30,.08-3.1.07-4-.75-3.86-3.86a142.74,142.74,0,0,0,0-15.48c-.17-3.23,1-3.82,4-3.79C63,36.22,80.35,36.15,97.68,36.15Z"/><path d="M897.12,176.1c8.07,0,15.23.17,22.38-.09,3-.11,4.35,1.15,5.68,3.58,7.9,14.34,16,28.59,24.17,43.25,8.55-14.53,17-28.61,25.11-42.9,1.76-3.11,3.7-4,7-3.91,6.8.23,13.62.07,20.49.07.32,2.19-1.24,3.47-2.13,5q-18.2,30-36.54,60a15.83,15.83,0,0,0-2.44,8.89c.14,12.15,0,24.3.12,36.45,0,2.83-.74,3.7-3.58,3.58-5.31-.22-10.66-.23-16,0-2.92.13-3.61-.87-3.57-3.66.14-12.15,0-24.3.11-36.45a14.57,14.57,0,0,0-2.23-8q-18.21-30.6-36.23-61.31C898.8,179.33,898.16,178,897.12,176.1Z"/><path d="M263.91,232.89c0-17.48.09-35-.09-52.43,0-3.35.94-4.23,4.16-4.1,6,.24,12,.15,18,0,2.56-.06,3.85.34,3.84,3.45q-.15,53.19,0,106.36c0,2.94-1,3.66-3.73,3.58-6.16-.18-12.33-.26-18.47,0-3.3.15-3.77-1.11-3.75-4C264,268.17,263.91,250.53,263.91,232.89Z"/><path d="M760,233.29c0,17-.2,34,.13,51,.1,4.81-1.46,5.82-5.82,5.55-5.64-.36-11.33-.21-17,0-2.67.08-3.37-.85-3.36-3.43q.1-53.24,0-106.45c0-3.05,1.16-3.58,3.8-3.52,6.16.14,12.33.23,18.49,0,3.18-.13,3.86,1,3.84,4C759.91,198,760,215.63,760,233.29Z"/><path d="M26,92.72c0,17.32-.11,34.65.09,52,0,3.51-.82,4.52-4.35,4.34-6.15-.32-12.33-.18-18.49,0-2.35,0-3.14-.61-3.13-3.06Q.18,92.46.07,39c0-2.47.81-3.1,3.14-3.05,6.33.13,12.67.24,19,0,3.13-.14,3.85.78,3.82,3.84C25.87,57.41,26,75.06,26,92.72Z"/><path class="cls-1" d="M530.14,149c-11.18-.07-17.89-8.21-16-18.39,1.49-8.1,6-14.3,12.68-18.93,5-3.52,14.21-.49,16.48,5.19,1,2.53,0,4.47-1.7,6.28a88.6,88.6,0,0,1-16.37,13.74c-1.2.75-3.05,1.3-2.54,3.21.57,2.13,2.56,1.81,4.16,1.7,8-.55,15-4.12,21.72-8.07,4.57-2.67,8.89-5.78,13.36-8.65.59-.38,1.13-1.28,2.1-.46s.32,1.35-.16,2c-7.68,10.62-16.94,19-30.3,21.77C532.11,148.65,530.64,148.86,530.14,149Z"/><path class="cls-1" d="M150.71,89.78c4-.31,6.8,1.64,8.92,4.64.5.72,1.19,1.74.46,2.72s-1.73.35-2.61-.08c-3.1-1.51-6.24-2.66-9.12.36s-2.9,6.41-1.69,10.19c1.43,4.47,3.8,8.42,6.1,12.45,6.16,10.78,5.47,20.61-1.75,27.4-4.65,4.38-10.39,5.38-15.51,2.7s-9.68-10.37-9-15.55a7.75,7.75,0,0,1,3-5.54c1.6-1.18,3.14-3.92,5.3-2.41,2.53,1.77-.6,3.39-1.2,5a11,11,0,0,0,2.29,12c2.39,2.65,6.69,2.42,9.3-.38,4-4.36,4.7-9.22,2.19-14.69C144,121.21,140.23,114,138.4,106c-.93-4.06-.68-8,2-11.34A11.92,11.92,0,0,1,150.71,89.78Z"/><path class="cls-1" d="M13.2,0A12.91,12.91,0,0,1,26,13.1,13.06,13.06,0,0,1,12.9,26,13.09,13.09,0,0,1,.12,12.8,12.9,12.9,0,0,1,13.2,0Z"/><path class="cls-1" d="M493,116.15c3-3.14,5.45-6,8.23-8.54,4.35-3.93,9-3.14,12.14,1.77.44.69,1,1.42.5,2.25s-1.3.8-2.18.54c-3.24-.94-5.39,1-7.43,3-8.26,8-14.4,17.26-17,28.66-.33,1.42.32,3.82-2.15,3.86-2,0-3.25-1.54-4.21-3.14-1.19-2-1-4.07-.58-6.26,1.63-8.47,3.08-17,4.76-25.42.41-2.08,0-5.14,3.38-5.23,3.75-.09,3.15,3.09,3.65,5.39C492.34,113.81,492.6,114.58,493,116.15Z"/><path class="cls-2" d="M134.93,77.43c.1,7.09-4.1,11.38-7.47,16-1.37,1.87-2.75,6-4.6,4.91-2.9-1.68.47-4.52,1.19-6.78,1.78-5.59,5.37-10.65,4.76-16.92-.13-1.27.54-1.79,1.78-1.62,1.66.22,3.39.5,4.12,2.23A5.43,5.43,0,0,1,134.93,77.43Z"/><path d="M407.05,35c-34.56-.28-58.91,23.16-59.16,57-.25,34.36,23.39,57.93,58.34,58.17,33.44.23,57.52-23.74,57.64-57.36C464,59.38,440.25,35.26,407.05,35Zm-.88,87.46c-17.89,0-29.33-11.78-29.12-30.07s11.27-29.57,29-29.57c17.11,0,28.28,11.75,28.28,29.74S423.17,122.42,406.17,122.45Z"/><path d="M625.17,287.72c-6.59-11.71-13.12-23.47-19.88-35.1-1.69-2.91-2.06-4.33,1.41-6.45,13.72-8.37,20.19-24.29,16.87-40.07-3.17-15.11-16.28-27.57-32.18-29.22-19.07-2-38.26-.38-57.39-.8-2.72-.06-2.3,1.75-2.3,3.36q0,53.69-.06,107.39c0,2.35.55,3.21,3.07,3.11,5.57-.21,11.14-.07,16.71,0,2.62,0,3.38-.89,3.33-3.63-.16-9.82.16-19.65-.17-29.46-.14-4,1.17-4.74,4.75-4.54a132.67,132.67,0,0,0,16.2,0c3.11-.21,4.72.88,6.13,3.45,5.67,10.33,11.5,20.57,17.34,30.81.84,1.48,1.27,3.37,3.79,3.33,7.6-.14,15.21-.06,23.28-.06A23.31,23.31,0,0,0,625.17,287.72ZM583.6,231.37c-8.48.18-17-.09-25.45.1-2.8.07-3.55-.89-3.52-3.27,0-4.48.07-9,.06-13.46,0-4.64.12-9.28-.05-13.91-.09-2.47.49-3.52,3.25-3.46,8.64.17,17.3-.12,25.94.11,9.85.25,16.22,7.13,16.18,17S593.44,231.16,583.6,231.37Z"/><path d="M812.85,127.93c-2.33,0-3.28,2.06-4.72,3.32-5.12,4.5-9.35,10-15,13.86-1.48,1-3.11,2.57-4.93,1.72s-1.46-3.17-1.49-5c-.06-3.81.16-7.62-.8-11.4-.71-2.82-1.26-5.61-4.62-6.4a8.21,8.21,0,0,0-8.86,3c-1.71,2-3,4.56-6.08,6.2a75.27,75.27,0,0,0,1.23-8.45c.05-1.64,1.93-4.39-1.41-4.77-2.17-.24-5.61-2.15-5.95,2.54-.12,1.51-1.45,2.15-2.56,2.88-5.56,3.65-11,7.41-16.72,10.88-2.14,1.31-4.61,4-7.11,2.29s-2.26-5.3-2-8.33c0-.49.16-1,.25-1.47,1.13-6,.68-6.62-5.36-7.18,1.13-3.9.74-7.22-3.49-9.14-4.56-2.07-9.34-1.5-12.76,2.36-3.65,4.1-6.8,8.62-10.3,12.85a72.41,72.41,0,0,1-15.76,14.4c-1.65,1.09-3.71,2-5.59.66s-1-3.39-.75-5.12c1-6.4,2.32-12.76,3.35-19.16,1.11-6.83-2-9.57-8.85-8.07-3.87.85-6.72,3.55-10.72,5.5,2.76-9.83,5.31-19.23,8.11-28.54a9.9,9.9,0,0,1,3.22-4.34C686.1,72.41,696.08,59,707.47,46.87c5.37-5.7,9-12.36,9.67-20.32.26-3.1,1-6.47-2.32-8.59a9.89,9.89,0,0,0-10.39-.41,33.75,33.75,0,0,0-11.58,9.28,160.39,160.39,0,0,0-25,46.21c-3.1,8.79-8.62,13.34-16.78,15.8-3.81,1.16-7.76,1.8-11.63,2.74-3.1.75-3.52-.51-2.58-3.1,2.78-7.64,5.4-15.34,8.32-22.92,2-5.26,4.51-10.34,6.68-15.55,1.33-3.18-.67-7.59-4-8.87-4.21-1.59-4.22,2.28-5,4.4-5.16,13.83-10.22,27.71-15.06,41.66-1.4,4-3,6.23-7.83,5-3.85-1-7.92-1.42-11.44-3.27-4.18-2.2-4.59.15-4.62,3.25,0,3.44,1.62,5.71,5.09,6.37a59.87,59.87,0,0,0,8.86,1.43c4.19.18,5.79,1,4.19,5.86-3.51,10.61-5.92,21.53-4.13,32.84,1,6.26,3.17,12,9.64,14.7,4.69,2,7,.75,8-4.2-8-.22-8.75-.84-9.66-9.12-1.5-13.68,3.67-26.17,7.06-39a2.83,2.83,0,0,1,2.59-2c8.79-1,17-3.73,25.5-7.86-.31,1.75-.41,2.88-.72,4-3.67,13-6.54,26.1-9.12,39.3-.49,2.49-2.79,6.38,2.13,7.22s3.44-3.73,4.54-6.09a2.3,2.3,0,0,0,.1-1c.15-9.8,8.06-12.2,15.7-16.86-.54,3-.87,4.76-1.16,6.51-.82,5.08-2,10.15-2.35,15.26-.62,9.14,4.8,12.81,13.39,9.51,3.81-1.47,6.73-4.24,9.91-6.61,1.38-1,2.23-2,3.9.17,3.89,5.18,9.05,6.12,15,3.49,4.32-1.9,7.68-5.08,11-8.33,7,10.92,10.42,10.49,21.81,3.55a61.52,61.52,0,0,0,6-4.54c2.56-2,5.09-4,8.55-6.8-.37,2.11-.48,2.89-.65,3.66-1.14,5.19-2.3,10.37-3.43,15.57-.6,2.72,0,5.06,2.66,6.32s4-.71,5.5-2.26c2.27-2.3,3.43-5.29,5-8,2.82-4.78,5.62-9.59,10.45-13.22.2,3.66.3,6.79.57,9.91.4,4.54,2,8.84,6.26,10.69s8.68.13,12.06-2.8A58.24,58.24,0,0,0,812.71,131C813.11,130.2,814.18,129.05,812.85,127.93ZM702.66,27.12c1.78-2.15,4.35-5.67,7.16-3.86,2.47,1.59.9,5.47.07,8.32A25.67,25.67,0,0,1,706,39c-8.8,12.57-19.63,23.3-30.69,33.83C681.1,55.55,691.24,40.92,702.66,27.12Z"/><path class="cls-3" d="M720.05,117.7c-1.07,4.4,3.49,7.52.75,10.91-3.67,4.53-6.45,10.32-13.12,11.5-1.29.23-2.82.94-3.81-.1s.07-2.45.56-3.59C707.62,129,712.06,122.56,720.05,117.7Z"/><path d="M927.57,126.17c-1.33-1.83-3,0-4.25.79-8.36,5.44-16.63,11-25,16.39-2.1,1.34-4.44,4.1-7.09,2.08s-2.42-5.28-2.13-8.32c.08-.82.4-1.62.56-2.43,1.29-6.54.74-7.18-6-7,1.33-8.48-3-13-11.32-11.8a10.46,10.46,0,0,0-6,3.27c-6.11,6.19-11.52,12.9-14.36,21.3-1.29,3.81-2.87,7.82.84,11.1,3.88,3.42,8.42,4.53,13.44,2.57A27.6,27.6,0,0,0,877,147c2.46-2.74,3.71-2.44,5.72.49,4.57,6.65,6.64,7.18,14.26,4.56a18,18,0,0,0,4.49-2.06A234.75,234.75,0,0,0,926,130.4C927.26,129.19,928.66,127.65,927.57,126.17ZM878.35,133c-.93,4.07-12.12,13.48-16.48,14.19-3.35.55-4.34-.31-2.92-3.54,3.72-8.47,8.41-16.11,17.51-21,.62,3.51-.24,6.5,1.73,9A1.83,1.83,0,0,1,878.35,133Z"/><path class="cls-4" d="M522.84,130c1.25-5.88,3.9-10.55,9.21-13.26,1.19-.6,2.59-1.52,3.61-.33s-.17,2.53-1.09,3.35C530.71,123.23,526.76,126.59,522.84,130Z"/></g></g></svg>