<svg xmlns="http://www.w3.org/2000/svg" viewBox="0 0 947.94 358.54"><g id="Layer_2" data-name="Layer 2"><g id="Layer_1-2" data-name="Layer 1"><path d="M736.26,253.27q-.18-90.71,0-181.39c0-3.62-1.15-4.31-4.51-4.31q-40,.23-80,0c-3.22-.06-4.62,1.11-5.76,3.94q-15.43,37.78-30.93,75.54c-6,14.7-12.08,29.41-18.47,45-.87-2.05-1.26-3-1.59-3.87Q571,130,547.21,71.69c-1.15-2.81-2.31-4.13-5.63-4.13q-40.25.18-80.47,0c-3.23,0-4.14.79-4.14,4.12q.18,90.95,0,181.88c0,3.43,1.06,4.06,4.2,4.06,14.16-.15,28.33-.29,42.48.06,4.66.12,5.33-1.43,5.33-5.6-.15-47.14-.1-94.28-.1-141.41v-5.11a5.94,5.94,0,0,1,2.12,2.93q28.59,72.2,56.92,144.43c1.35,3.45,2.92,4.77,6.75,4.7,14.67-.24,29.34-.21,44,0,3.56.06,5.17-1,6.48-4.39q19.9-50.73,39.91-101.42,9.11-23.06,18.21-46l.92.14v5.17c0,47.13.06,94.27-.1,141.41,0,4.16,1.12,5.24,5.24,5.16,14.16-.24,28.32-.19,42.48,0C735.26,257.69,736.26,256.82,736.26,253.27Z"/><path d="M227.48,67.56q-47,.16-94,0c-3,0-4.29,1-5.39,3.72Q111.1,113,94,154.66q-20.5,49.92-41,99.82l-.9-.11V249q-.1-88.17.08-176.32c0-4.2-1-5.21-5.18-5.13-14,.25-28,.19-42,0-3.63,0-5,.58-5,4.76q.2,90.45,0,180.82c0,3.39.69,4.47,4.3,4.47q48.47-.21,97,0c3.29.06,4.59-1.18,5.7-4q26.78-68.11,53.62-136.12,9.39-23.7,18.75-47.39l.75.16v5.28q.09,88.68-.09,177.36c0,3.62.67,4.81,4.57,4.74,14.35-.24,28.68-.18,43,0,3.45.05,4.45-.86,4.45-4.4q-.18-90.67,0-181.37C232.05,68.17,230.8,67.56,227.48,67.56Z"/><path d="M435.62,67.87c-30.46.25-61,.13-91.46.13s-61,0-91.46-.08c-3.49,0-4.86.47-4.75,4.47.29,12.47.22,25,0,37.47-.07,3.48.77,4.38,4.32,4.38,20.35-.19,40.68,0,61-.19,3.88,0,4.88.82,4.88,4.82-.19,44.64,0,89.27-.19,133.91,0,3.9,1,5,4.9,4.9q20.5-.4,41,0c4.37.09,5.83-.83,5.83-5.61-.22-44.47-.07-88.94-.22-133.4,0-3.74.86-4.62,4.61-4.62,20.82.18,41.65,0,62.47.18,3.42,0,4.49-.8,4.42-4.36-.25-12.15-.3-24.32,0-36.47C441.07,69.16,440.21,67.87,435.62,67.87Z"/><path d="M206.17,50.61C220.67,50.44,232,39.11,231.9,25S220.38,0,205.71,0,180,11.07,180.08,25.46C180.11,39.61,191.67,50.78,206.17,50.61Z"/><path d="M843.15,259.15c51.65,2.79,100.07-29.63,104.32-85.47,2-25.8-1.82-50.29-18.47-71.06C908.46,77,880.83,66.1,841,65.76,803.34,64.7,754.14,94,749.43,151.17c-1.78,21.62.45,42.75,11.91,61.62C779.86,243.26,808.22,257.26,843.15,259.15ZM848.35,112c29.46-.08,49.38,20.17,49.43,50.23,0,30.23-19.46,50.82-48.21,50.89-30.53.08-50.29-19.58-50.44-50.17S818.69,112,848.35,112Z"/><polygon points="529.29 282.92 505.18 325.75 480.38 282.92 463.98 282.92 463.98 357.06 482.4 357.06 482.4 318.82 500.41 349.75 509.26 349.75 527.4 317.72 527.58 357.06 545.89 357.06 545.69 282.92 529.29 282.92"/><polygon points="579.7 327.3 610.99 327.3 610.99 311.62 579.7 311.62 579.7 299.12 615.22 299.12 615.22 282.92 559.98 282.92 559.98 357.06 616.53 357.06 616.53 340.85 579.7 340.85 579.7 327.3"/><polygon points="692.9 282.92 668.79 325.75 644 282.92 627.6 282.92 627.6 357.06 646.01 357.06 646.01 318.82 664.02 349.75 672.88 349.75 691.01 317.72 691.19 357.06 709.51 357.06 709.3 282.92 692.9 282.92"/><path d="M787.09,292.4a36.5,36.5,0,0,0-12.33-8.11,44.08,44.08,0,0,0-31.24,0,37,37,0,0,0-20.63,20.34,41.86,41.86,0,0,0,0,30.72,37.27,37.27,0,0,0,8.2,12.23,36.65,36.65,0,0,0,12.43,8.1,44.08,44.08,0,0,0,31.24,0,36.8,36.8,0,0,0,12.33-8.05,37.68,37.68,0,0,0,8.2-12.23,41.46,41.46,0,0,0,0-30.77A38.44,38.44,0,0,0,787.09,292.4Zm-10.42,36.27a20.26,20.26,0,0,1-4,6.73,17.38,17.38,0,0,1-6,4.29,19.72,19.72,0,0,1-15,0,17.29,17.29,0,0,1-6-4.29,20.45,20.45,0,0,1-4-6.73,26.71,26.71,0,0,1,0-17.42,20.58,20.58,0,0,1,4-6.67,17.29,17.29,0,0,1,6-4.29,19.6,19.6,0,0,1,15,0,17.38,17.38,0,0,1,6,4.29,20.39,20.39,0,0,1,4,6.67,26.71,26.71,0,0,1,0,17.42Z"/><path d="M868.67,324.81a26.63,26.63,0,0,0,3.83-14.46,27.37,27.37,0,0,0-3.83-14.67,24.71,24.71,0,0,0-10.81-9.48,38.93,38.93,0,0,0-16.66-3.28H809v74.14h19.93v-19.7H839.8l12.77,19.7h21.34l-15.23-23.35A24.35,24.35,0,0,0,868.67,324.81Zm-19.37-6.52c-2,1.91-5.15,2.86-9.3,2.86H828.93V299.44H840c4.15,0,7.26.95,9.3,2.86s3.07,4.59,3.07,8.05A10.29,10.29,0,0,1,849.3,318.29Z"/><polygon points="911.61 312.34 894.94 282.92 873.91 282.92 900.77 330.17 900.77 357.06 920.7 357.06 920.7 330.5 947.66 282.92 928.35 282.92 911.61 312.34"/></g></g></svg>